<?xml version="1.0" encoding="UTF-8"?>
<svg id="Layer_1" data-name="Layer 1" xmlns="http://www.w3.org/2000/svg" viewBox="0 0 632.7 460.92">
  <defs>
    <style>
      .cls-1 {
        fill: #0d009f;
      }
    </style>
  </defs>
  <polygon class="cls-1" points="233.95 460.78 233.96 460.92 0 460.92 0 278.48 90.79 277.06 90.79 286.62 156.38 329.04 156.38 412.31 233.95 460.78"/>
  <polygon class="cls-1" points="340.64 273.95 632.7 460.92 405.36 460.92 118.5 276.61 340.64 273.95"/>
  <polygon class="cls-1" points="90.79 271.76 0 270 0 87.56 233.96 87.56 233.95 87.7 156.38 136.17 156.38 219.44 90.79 261.87 90.79 271.76"/>
  <polygon class="cls-1" points="118.2 271.52 404.64 87.56 632.7 87.56 340.63 271.04 118.2 271.52"/>
  <polygon fill="#fff" points="39.1 33.1 82.42 66.55 55.49 66.55 23.14 40.43 19.95 40.43 19.95 66.55 0 66.55 0 0 19.95 0 19.95 25.91 23.14 25.91 55.47 0 82.42 0 39.1 33.1"/>
  <polygon fill="#fff" points="203.5 66.55 152.64 66.55 139.47 66.53 144.73 57.95 144.73 57.94 151.83 51.98 152.64 51.3 152.64 51.28 173.62 51.28 154.15 17.81 125.8 66.55 104.79 66.55 143.79 0 164.51 0 203.5 66.55"/>
  <path fill="#fff" d="m307.53,0v45.82c0,11.45-6.53,20.73-14.58,20.73h-58.17c-8.05,0-14.58-9.28-14.58-20.73V0h19.42v42.68c0,4.75,2.71,8.6,6.04,8.6h35.97c3.34,0,6.04-3.85,6.04-8.6V0h19.86Z"/>
  <polygon fill="#fff" points="417.84 0 417.84 66.55 394.3 66.55 394.29 66.53 354.29 21.82 349.92 21.82 349.92 66.55 330.74 66.55 330.74 0 354.28 0 354.29 .02 394.29 44.74 394.29 44.73 398.65 44.73 398.65 0 417.84 0"/>
  <polygon fill="#fff" points="354.29 0 354.29 .02 354.28 0 354.29 0"/>
  <polygon fill="#fff" points="429 66.55 428.98 66.55 428.98 66.53 429 66.55"/>
  <polygon fill="#fff" points="521.7 7.52 521.7 15.02 448.92 15.02 440.86 7.52 440.86 .02 513.64 .02 521.7 7.52"/>
  <polygon fill="#fff" points="513.64 51.53 521.7 59.03 521.7 66.53 440.86 66.53 440.86 25.64 504.94 25.64 512.99 33.14 512.99 40.64 460.24 40.64 460.24 51.53 513.64 51.53"/>
  <path fill="#fff" d="m632.7,66.53h-23.74l-16.69-19.55h-27.48v19.55h-19.86v-34.28h60.41c1.67,0,3.19-.96,4.28-2.52,1.1-1.56,1.78-3.71,1.78-6.09,0-4.76-2.72-8.62-6.06-8.62h-60.41V.02h68.66c9.12,0,16.52,10.51,16.52,23.48,0,6.49-1.85,12.35-4.84,16.6-2.98,4.25-7.12,6.88-11.68,6.88h.69l18.42,19.55Z"/>
</svg>