<?xml version="1.0" encoding="UTF-8"?>
<svg id="Layer_1" data-name="Layer 1" xmlns="http://www.w3.org/2000/svg" viewBox="0 0 1228.86 143.02">
  <defs>
    <style>
      .cls-1 {
        fill: #fff;
      }
    </style>
  </defs>
  <polygon class="cls-1" points="75.54 71.13 159.25 143.02 107.21 143.02 44.71 86.89 38.54 86.89 38.54 143.02 0 143.02 0 0 38.54 0 38.54 55.68 44.71 55.68 107.17 0 159.25 0 75.54 71.13"/>
  <polygon class="cls-1" points="294.94 110.2 294.92 110.22 294.92 110.2 294.94 110.2"/>
  <polygon class="cls-1" points="393.18 143.02 268.24 143.02 278.88 124.57 278.89 124.55 293.28 111.68 294.92 110.22 294.94 110.2 335.45 110.2 297.84 38.28 243.07 143.02 202.47 143.02 277.82 0 317.85 0 393.18 143.02"/>
  <path class="cls-1" d="m605.14,0v98.47c0,24.61-12.61,44.55-28.17,44.55h-112.4c-15.56,0-28.17-19.94-28.17-44.55V0h37.53v91.72c0,10.21,5.23,18.48,11.67,18.48h69.5c6.46,0,11.67-8.27,11.67-18.48V0h38.37Z"/>
  <polygon class="cls-1" points="816.65 0 816.65 143.02 771.17 143.02 771.15 142.97 693.87 46.89 685.43 46.89 685.43 143.02 648.36 143.02 648.36 0 693.84 0 693.87 .04 771.15 96.15 771.15 96.13 779.57 96.13 779.57 0 816.65 0"/>
  <polygon class="cls-1" points="684.53 0 684.53 .04 684.5 0 684.53 0"/>
  <polygon class="cls-1" points="761.84 143.02 761.81 143.02 761.81 142.97 761.84 143.02"/>
  <polygon class="cls-1" points="1016.06 16.16 1016.06 32.28 875.44 32.28 859.87 16.16 859.87 .04 1000.5 .04 1016.06 16.16"/>
  <polygon class="cls-1" points="1000.5 110.74 1016.06 126.86 1016.06 142.97 859.87 142.97 859.87 55.1 983.68 55.1 999.25 71.22 999.25 87.34 897.31 87.34 897.31 110.74 1000.5 110.74"/>
  <path class="cls-1" d="m1228.86,142.97h-45.87l-32.25-42.01h-53.09v42.01h-38.37v-73.66h116.72c3.24,0,6.16-2.07,8.28-5.42,2.12-3.35,3.44-7.97,3.44-13.09,0-10.23-5.25-18.52-11.72-18.52h-116.72V.04h132.66c17.63,0,31.92,22.59,31.92,50.46,0,13.95-3.58,26.54-9.35,35.68-5.49,8.68-12.98,14.22-21.28,14.73l.04.05.13.14,35.46,41.87Z"/>
</svg>